<svg xmlns="http://www.w3.org/2000/svg" viewBox="0 0 32 32">
  <rect width="32" height="32" rx="6" fill="#059669"/>
  <path d="M22 10.5c0-1.1-.4-2.1-1.2-2.8-.8-.8-1.8-1.2-2.8-1.2-1.1 0-2.1.4-2.8 1.2L8 14.9c-.8.8-1.2 1.8-1.2 2.8s.4 2.1 1.2 2.8c.8.8 1.8 1.2 2.8 1.2h.5v-2.5H10c-.5 0-1-.2-1.4-.6-.4-.4-.6-.9-.6-1.4s.2-1 .6-1.4l7.2-7.2c.4-.4.9-.6 1.4-.6s1 .2 1.4.6c.4.4.6.9.6 1.4v.5h2.5v-.5z" fill="white"/>
  <path d="M24 17.1c0 1.1-.4 2.1-1.2 2.8-.8.8-1.8 1.2-2.8 1.2h-.5v2.5h.5c1.1 0 2.1-.4 2.8-1.2l7.2-7.2c.8-.8 1.2-1.8 1.2-2.8s-.4-2.1-1.2-2.8c-.8-.8-1.8-1.2-2.8-1.2-1.1 0-2.1.4-2.8 1.2l-.4.4 1.8 1.8.4-.4c.4-.4.9-.6 1.4-.6s1 .2 1.4.6c.4.4.6.9.6 1.4s-.2 1-.6 1.4l-7.2 7.2c-.4.4-.9.6-1.4.6s-1-.2-1.4-.6c-.4-.4-.6-.9-.6-1.4v-.5H24v.5z" fill="white" opacity="0.9"/>
</svg>
